<?xml version="1.0" encoding="UTF-8" standalone="no"?>
<!DOCTYPE svg PUBLIC "-//W3C//DTD SVG 1.1//EN"
 "http://www.w3.org/Graphics/SVG/1.1/DTD/svg11.dtd">
<!-- Generated by graphviz version 2.43.0 (0)
 -->
<!-- Title: G Pages: 1 -->
<svg width="1160pt" height="1973pt"
 viewBox="0.00 0.00 1160.48 1973.00" xmlns="http://www.w3.org/2000/svg" xmlns:xlink="http://www.w3.org/1999/xlink">
<g id="graph0" class="graph" transform="scale(1 1) rotate(0) translate(4 1969)">
<title>G</title>
<polygon fill="white" stroke="transparent" points="-4,4 -4,-1969 1156.48,-1969 1156.48,4 -4,4"/>
<g id="clust4" class="cluster">
<title>cluster_postsignindex_sh</title>
<polygon fill="none" stroke="black" points="440.48,-1171 440.48,-1516 820.48,-1516 820.48,-1171 440.48,-1171"/>
<text text-anchor="middle" x="630.48" y="-1500.8" font-family="Times,serif" font-size="14.00">postsignindex.sh</text>
</g>
<g id="clust5" class="cluster">
<title>cluster_pullfdroidserver_sh</title>
<polygon fill="none" stroke="black" points="828.48,-1171 828.48,-1352 1144.48,-1352 1144.48,-1171 828.48,-1171"/>
<text text-anchor="middle" x="986.48" y="-1336.8" font-family="Times,serif" font-size="14.00">pullfdroidserver.sh</text>
</g>
<g id="clust6" class="cluster">
<title>cluster_publish</title>
<polygon fill="none" stroke="grey" stroke-dasharray="5,2" points="99.48,-458 99.48,-855 337.48,-855 337.48,-458 99.48,-458"/>
<text text-anchor="middle" x="218.48" y="-839.8" font-family="Times,serif" font-size="14.00">PUBLISH</text>
</g>
<g id="clust7" class="cluster">
<title>cluster_signindex</title>
<polygon fill="none" stroke="grey" stroke-dasharray="5,2" points="227.48,-1524 227.48,-1921 581.48,-1921 581.48,-1524 227.48,-1524"/>
<text text-anchor="middle" x="404.48" y="-1905.8" font-family="Times,serif" font-size="14.00">PUBLISH</text>
</g>
<g id="clust1" class="cluster">
<title>cluster_build_sh</title>
<polygon fill="none" stroke="black" points="317.48,-910 317.48,-1163 513.48,-1163 513.48,-910 317.48,-910"/>
<text text-anchor="middle" x="415.48" y="-1147.8" font-family="Times,serif" font-size="14.00">build.sh</text>
</g>
<g id="clust2" class="cluster">
<title>cluster_postpublish_sh</title>
<polygon fill="none" stroke="black" points="24.48,-197 24.48,-450 278.48,-450 278.48,-197 24.48,-197"/>
<text text-anchor="middle" x="151.48" y="-434.8" font-family="Times,serif" font-size="14.00">postpublish.sh</text>
</g>
<g id="clust8" class="cluster">
<title>cluster_makebs_sh</title>
<polygon fill="none" stroke="black" points="55.48,-8 55.48,-189 247.48,-189 247.48,-8 55.48,-8"/>
<text text-anchor="middle" x="151.48" y="-173.8" font-family="Times,serif" font-size="14.00">makebs.sh</text>
</g>
<!-- top -->
<!-- &#45;f build -->
<g id="node12" class="node">
<title>&#45;f build</title>
<polygon fill="none" stroke="black" points="419.48,-1115 354.46,-1097 419.48,-1079 484.5,-1097 419.48,-1115"/>
<text text-anchor="middle" x="419.48" y="-1093.3" font-family="Inconsolata" font-size="14.00">&#45;f build</text>
</g>
<!-- top&#45;&gt;&#45;f build -->
<!-- fdroid build -->
<g id="node2" class="node">
<title>fdroid build</title>
<polygon fill="none" stroke="black" points="452.48,-971 354.48,-971 354.48,-935 452.48,-935 452.48,-971"/>
<text text-anchor="middle" x="403.48" y="-949.3" font-family="Inconsolata" font-size="14.00">fdroid build</text>
</g>
<!-- build_email -->
<g id="node19" class="node">
<title>build_email</title>
<polygon fill="lightgrey" stroke="black" points="574.33,-886.56 353.48,-899 132.62,-886.56 132.83,-866.44 574.13,-866.44 574.33,-886.56"/>
<text text-anchor="middle" x="353.48" y="-877.3" font-family="serif" font-size="14.00">Build output is waiting to be published</text>
</g>
<!-- fdroid build&#45;&gt;build_email -->
<g id="edge4" class="edge">
<title>fdroid build:s&#45;&gt;build_email:n</title>
<path fill="none" stroke="black" d="M403.48,-934C403.48,-911.11 367.88,-921.24 356.76,-908.67"/>
<polygon fill="black" stroke="black" points="360.01,-907.35 353.48,-899 353.38,-909.59 360.01,-907.35"/>
</g>
<!-- fdroid publish -->
<g id="node3" class="node">
<title>fdroid publish</title>
<polygon fill="none" stroke="black" points="272.98,-735 161.98,-735 161.98,-699 272.98,-699 272.98,-735"/>
<text text-anchor="middle" x="217.48" y="-713.3" font-family="Inconsolata" font-size="14.00">fdroid publish</text>
</g>
<!-- fdroid gpgsign -->
<g id="node4" class="node">
<title>fdroid gpgsign</title>
<polygon fill="none" stroke="black" points="272.98,-663 161.98,-663 161.98,-627 272.98,-627 272.98,-663"/>
<text text-anchor="middle" x="217.48" y="-641.3" font-family="Inconsolata" font-size="14.00">fdroid gpgsign</text>
</g>
<!-- fdroid publish&#45;&gt;fdroid gpgsign -->
<g id="edge7" class="edge">
<title>fdroid publish:s&#45;&gt;fdroid gpgsign:n</title>
<path fill="none" stroke="darkgrey" stroke-dasharray="5,2" d="M217.48,-699C217.48,-687 217.48,-681.75 217.48,-673.12"/>
<polygon fill="darkgrey" stroke="darkgrey" points="220.98,-673 217.48,-663 213.98,-673 220.98,-673"/>
</g>
<!-- push_repo -->
<g id="node23" class="node">
<title>push_repo</title>
<ellipse fill="none" stroke="grey" stroke-dasharray="5,2" cx="217.48" cy="-573" rx="79.09" ry="18"/>
<text text-anchor="middle" x="217.48" y="-569.3" font-family="Roboto" font-size="14.00" fill="grey">rsync push repo?</text>
</g>
<!-- fdroid gpgsign&#45;&gt;push_repo -->
<g id="edge8" class="edge">
<title>fdroid gpgsign:s&#45;&gt;push_repo:n</title>
<path fill="none" stroke="darkgrey" stroke-dasharray="5,2" d="M217.48,-627C217.48,-615 217.48,-609.75 217.48,-601.12"/>
<polygon fill="darkgrey" stroke="darkgrey" points="220.98,-601 217.48,-591 213.98,-601 220.98,-601"/>
</g>
<!-- fdroid update -->
<g id="node5" class="node">
<title>fdroid update</title>
<polygon fill="none" stroke="black" points="203.48,-330 99.48,-330 99.48,-294 203.48,-294 203.48,-330"/>
<text text-anchor="middle" x="151.48" y="-308.3" font-family="Inconsolata" font-size="14.00">fdroid update</text>
</g>
<!-- &#45;f makebs&#45;next -->
<g id="node14" class="node">
<title>&#45;f makebs&#45;next</title>
<polygon fill="none" stroke="black" points="151.48,-258 49.43,-240 151.48,-222 253.53,-240 151.48,-258"/>
<text text-anchor="middle" x="151.48" y="-236.3" font-family="Inconsolata" font-size="14.00">&#45;f makebs&#45;next</text>
</g>
<!-- fdroid update&#45;&gt;&#45;f makebs&#45;next -->
<g id="edge19" class="edge">
<title>fdroid update:s&#45;&gt;&#45;f makebs&#45;next:n</title>
<path fill="none" stroke="black" d="M151.48,-294C151.48,-282 151.48,-276.75 151.48,-268.12"/>
<polygon fill="black" stroke="black" points="154.98,-268 151.48,-258 147.98,-268 154.98,-268"/>
</g>
<!-- postpublish_email -->
<g id="node20" class="node">
<title>postpublish_email</title>
<polygon fill="lightgrey" stroke="black" points="372.58,-1952.56 206.48,-1965 40.38,-1952.56 40.54,-1932.44 372.42,-1932.44 372.58,-1952.56"/>
<text text-anchor="middle" x="206.48" y="-1943.3" font-family="serif" font-size="14.00">Index is waiting to be signed</text>
</g>
<!-- fdroid update&#45;&gt;postpublish_email -->
<g id="edge12" class="edge">
<title>fdroid update:s&#45;&gt;postpublish_email:w</title>
<path fill="none" stroke="black" d="M151.48,-293C151.48,-278.57 262.54,-250.03 203.48,-330 171.16,-373.76 128.2,-331.08 86.48,-366 35.11,-408.99 17.48,-433.01 17.48,-500 17.48,-1784 17.48,-1784 17.48,-1784 17.48,-1853.39 -28.56,-1937.91 29.28,-1946.32"/>
<polygon fill="black" stroke="black" points="29.27,-1949.83 39.48,-1947 29.73,-1942.84 29.27,-1949.83"/>
</g>
<!-- fdroid signindex -->
<g id="node6" class="node">
<title>fdroid signindex</title>
<polygon fill="none" stroke="black" points="467.98,-1801 342.98,-1801 342.98,-1765 467.98,-1765 467.98,-1801"/>
<text text-anchor="middle" x="405.48" y="-1779.3" font-family="Inconsolata" font-size="14.00">fdroid signindex</text>
</g>
<!-- gpgsign? -->
<g id="node28" class="node">
<title>gpgsign?</title>
<ellipse fill="none" stroke="grey" stroke-dasharray="5,2" cx="408.48" cy="-1711" rx="46.59" ry="18"/>
<text text-anchor="middle" x="408.48" y="-1707.3" font-family="Roboto" font-size="14.00" fill="grey">gpgsign?</text>
</g>
<!-- fdroid signindex&#45;&gt;gpgsign? -->
<g id="edge15" class="edge">
<title>fdroid signindex:s&#45;&gt;gpgsign?:n</title>
<path fill="none" stroke="darkgrey" stroke-dasharray="5,2" d="M405.48,-1765C405.48,-1752.96 407.17,-1747.76 408.01,-1739.14"/>
<polygon fill="darkgrey" stroke="darkgrey" points="411.51,-1739.15 408.48,-1729 404.52,-1738.83 411.51,-1739.15"/>
</g>
<!-- fdroid deploy -->
<g id="node7" class="node">
<title>fdroid deploy</title>
<polygon fill="none" stroke="black" points="632.48,-1396 528.48,-1396 528.48,-1360 632.48,-1360 632.48,-1396"/>
<text text-anchor="middle" x="580.48" y="-1374.3" font-family="Inconsolata" font-size="14.00">fdroid deploy</text>
</g>
<!-- git commit stats/known_apks.txt -->
<g id="node11" class="node">
<title>git commit stats/known_apks.txt</title>
<polygon fill="none" stroke="black" points="693.48,-1304 467.48,-1304 467.48,-1268 693.48,-1268 693.48,-1304"/>
<text text-anchor="middle" x="580.48" y="-1282.3" font-family="Inconsolata" font-size="14.00">git commit stats/known_apks.txt</text>
</g>
<!-- fdroid deploy&#45;&gt;git commit stats/known_apks.txt -->
<g id="edge21" class="edge">
<title>fdroid deploy:s&#45;&gt;git commit stats/known_apks.txt:n</title>
<path fill="none" stroke="black" d="M580.48,-1360C580.48,-1339.38 580.48,-1331.8 580.48,-1315.26"/>
<polygon fill="black" stroke="black" points="583.98,-1315 580.48,-1305 576.98,-1315 583.98,-1315"/>
</g>
<!-- ./makebuildserver -->
<g id="node8" class="node">
<title>./makebuildserver</title>
<polygon fill="none" stroke="black" points="216.98,-69 85.98,-69 85.98,-33 216.98,-33 216.98,-69"/>
<text text-anchor="middle" x="151.48" y="-47.3" font-family="Inconsolata" font-size="14.00">./makebuildserver</text>
</g>
<!-- git pull fdroiddata -->
<g id="node9" class="node">
<title>git pull fdroiddata</title>
<polygon fill="none" stroke="black" points="487.98,-1043 342.98,-1043 342.98,-1007 487.98,-1007 487.98,-1043"/>
<text text-anchor="middle" x="415.48" y="-1021.3" font-family="Inconsolata" font-size="14.00">git pull fdroiddata</text>
</g>
<!-- git pull fdroiddata&#45;&gt;fdroid build -->
<g id="edge3" class="edge">
<title>git pull fdroiddata:s&#45;&gt;fdroid build:n</title>
<path fill="none" stroke="black" d="M415.48,-1007C415.48,-994.22 408.59,-989.82 405.25,-981.1"/>
<polygon fill="black" stroke="black" points="408.65,-980.25 403.48,-971 401.76,-981.45 408.65,-980.25"/>
</g>
<!-- git pull fdroidserver -->
<g id="node10" class="node">
<title>git pull fdroidserver</title>
<polygon fill="none" stroke="black" points="1038.48,-1232 880.48,-1232 880.48,-1196 1038.48,-1196 1038.48,-1232"/>
<text text-anchor="middle" x="959.48" y="-1210.3" font-family="Inconsolata" font-size="14.00">git pull fdroidserver</text>
</g>
<!-- git pull fdroidserver&#45;&gt;&#45;f build -->
<g id="edge27" class="edge">
<title>git pull fdroidserver:s&#45;&gt;&#45;f build:n</title>
<path fill="none" stroke="black" d="M959.48,-1195C959.48,-1077.28 450.66,-1227.94 420.84,-1125.94"/>
<polygon fill="black" stroke="black" points="424.31,-1125.43 419.48,-1116 417.37,-1126.38 424.31,-1125.43"/>
</g>
<!-- &#45;f pullfdroidserver&#45;next -->
<g id="node16" class="node">
<title>&#45;f pullfdroidserver&#45;next</title>
<polygon fill="none" stroke="black" points="630.48,-1232 465.92,-1214 630.48,-1196 795.04,-1214 630.48,-1232"/>
<text text-anchor="middle" x="630.48" y="-1210.3" font-family="Inconsolata" font-size="14.00">&#45;f pullfdroidserver&#45;next</text>
</g>
<!-- git commit stats/known_apks.txt&#45;&gt;&#45;f pullfdroidserver&#45;next -->
<g id="edge23" class="edge">
<title>git commit stats/known_apks.txt:s&#45;&gt;&#45;f pullfdroidserver&#45;next:n</title>
<path fill="none" stroke="black" d="M580.48,-1268C580.48,-1244.9 616.07,-1254.65 627.2,-1241.81"/>
<polygon fill="black" stroke="black" points="630.63,-1242.59 630.48,-1232 623.99,-1240.37 630.63,-1242.59"/>
</g>
<!-- postsignindex_email -->
<g id="node21" class="node">
<title>postsignindex_email</title>
<polygon fill="lightgrey" stroke="black" points="415.83,-1219.56 266.48,-1232 117.12,-1219.56 117.26,-1199.44 415.69,-1199.44 415.83,-1219.56"/>
<text text-anchor="middle" x="266.48" y="-1210.3" font-family="serif" font-size="14.00">Server has been updated.</text>
</g>
<!-- git commit stats/known_apks.txt&#45;&gt;postsignindex_email -->
<g id="edge22" class="edge">
<title>git commit stats/known_apks.txt:s&#45;&gt;postsignindex_email:n</title>
<path fill="none" stroke="black" d="M580.48,-1268C580.48,-1201.47 298.72,-1291.7 269.01,-1241.71"/>
<polygon fill="black" stroke="black" points="272.39,-1240.8 266.48,-1232 265.61,-1242.56 272.39,-1240.8"/>
</g>
<!-- &#45;f build&#45;&gt;git pull fdroiddata -->
<g id="edge2" class="edge">
<title>&#45;f build:s&#45;&gt;git pull fdroiddata:n</title>
<path fill="none" stroke="black" d="M419.48,-1079C419.48,-1066.93 417.23,-1061.77 416.1,-1053.15"/>
<polygon fill="black" stroke="black" points="419.59,-1052.77 415.48,-1043 412.6,-1053.2 419.59,-1052.77"/>
</g>
<!-- &#45;f makebs -->
<g id="node13" class="node">
<title>&#45;f makebs</title>
<polygon fill="none" stroke="black" points="151.48,-141 80.93,-123 151.48,-105 222.03,-123 151.48,-141"/>
<text text-anchor="middle" x="151.48" y="-119.3" font-family="Inconsolata" font-size="14.00">&#45;f makebs</text>
</g>
<!-- &#45;f makebs&#45;&gt;./makebuildserver -->
<g id="edge29" class="edge">
<title>&#45;f makebs:s&#45;&gt;./makebuildserver:n</title>
<path fill="none" stroke="black" d="M151.48,-105C151.48,-93 151.48,-87.75 151.48,-79.12"/>
<polygon fill="black" stroke="black" points="154.98,-79 151.48,-69 147.98,-79 154.98,-79"/>
</g>
<!-- &#45;f makebs&#45;next&#45;&gt;&#45;f makebs -->
<g id="edge28" class="edge">
<title>&#45;f makebs&#45;next:s&#45;&gt;&#45;f makebs:n</title>
<path fill="none" stroke="black" d="M151.48,-221C151.48,-189.59 151.48,-179.26 151.48,-152.29"/>
<polygon fill="black" stroke="black" points="154.98,-152 151.48,-142 147.98,-152 154.98,-152"/>
</g>
<!-- &#45;f pullfdroidserver -->
<g id="node15" class="node">
<title>&#45;f pullfdroidserver</title>
<polygon fill="none" stroke="black" points="986.48,-1304 853.42,-1286 986.48,-1268 1119.54,-1286 986.48,-1304"/>
<text text-anchor="middle" x="986.48" y="-1282.3" font-family="Inconsolata" font-size="14.00">&#45;f pullfdroidserver</text>
</g>
<!-- &#45;f pullfdroidserver&#45;&gt;git pull fdroidserver -->
<g id="edge26" class="edge">
<title>&#45;f pullfdroidserver:s&#45;&gt;git pull fdroidserver:n</title>
<path fill="none" stroke="black" d="M986.48,-1268C986.48,-1252.06 969.33,-1251.37 962.37,-1241.62"/>
<polygon fill="black" stroke="black" points="965.71,-1240.57 959.48,-1232 959,-1242.58 965.71,-1240.57"/>
</g>
<!-- &#45;f pullfdroidserver&#45;next&#45;&gt;&#45;f build -->
<g id="edge25" class="edge">
<title>&#45;f pullfdroidserver&#45;next:w&#45;&gt;&#45;f build:n</title>
<path fill="none" stroke="black" d="M464.48,-1214C443.32,-1214 424.45,-1156.3 420.32,-1126.29"/>
<polygon fill="black" stroke="black" points="423.78,-1125.68 419.48,-1116 416.8,-1126.25 423.78,-1125.68"/>
<text text-anchor="middle" x="462.48" y="-1217.8" font-family="Roboto" font-size="14.00">!</text>
</g>
<!-- &#45;f pullfdroidserver&#45;next&#45;&gt;&#45;f pullfdroidserver -->
<g id="edge24" class="edge">
<title>&#45;f pullfdroidserver&#45;next:s&#45;&gt;&#45;f pullfdroidserver:n</title>
<path fill="none" stroke="black" d="M630.48,-1195C630.48,-1176.72 778.45,-1188.26 795.01,-1196 814,-1204.88 807.03,-1222.04 825.48,-1232 883.45,-1263.3 1076.09,-1218.67 1119.76,-1268 1130.36,-1279.98 1131.03,-1292.64 1119.76,-1304 1111,-1312.83 1022.94,-1317.98 994.97,-1310.63"/>
<polygon fill="black" stroke="black" points="996.75,-1307.61 986.48,-1305 992.88,-1313.44 996.75,-1307.61"/>
</g>
<!-- &#45;f update -->
<g id="node17" class="node">
<title>&#45;f update</title>
<polygon fill="none" stroke="black" points="166.48,-402 95.93,-384 166.48,-366 237.03,-384 166.48,-402"/>
<text text-anchor="middle" x="166.48" y="-380.3" font-family="Inconsolata" font-size="14.00">&#45;f update</text>
</g>
<!-- &#45;f update&#45;&gt;fdroid update -->
<g id="edge11" class="edge">
<title>&#45;f update:s&#45;&gt;fdroid update:n</title>
<path fill="none" stroke="black" d="M166.48,-366C166.48,-352.73 157.69,-348.84 153.56,-339.96"/>
<polygon fill="black" stroke="black" points="156.95,-339.07 151.48,-330 150.1,-340.51 156.95,-339.07"/>
</g>
<!-- &#45;f update_server -->
<g id="node18" class="node">
<title>&#45;f update_server</title>
<polygon fill="none" stroke="black" points="580.48,-1468 465.69,-1450 580.48,-1432 695.27,-1450 580.48,-1468"/>
<text text-anchor="middle" x="580.48" y="-1446.3" font-family="Inconsolata" font-size="14.00">&#45;f update_server</text>
</g>
<!-- &#45;f update_server&#45;&gt;fdroid deploy -->
<g id="edge20" class="edge">
<title>&#45;f update_server:s&#45;&gt;fdroid deploy:n</title>
<path fill="none" stroke="black" d="M580.48,-1432C580.48,-1420 580.48,-1414.75 580.48,-1406.12"/>
<polygon fill="black" stroke="black" points="583.98,-1406 580.48,-1396 576.98,-1406 583.98,-1406"/>
</g>
<!-- pull_unsigned -->
<g id="node22" class="node">
<title>pull_unsigned</title>
<ellipse fill="none" stroke="grey" stroke-dasharray="5,2" cx="218.48" cy="-789" rx="93.68" ry="18"/>
<text text-anchor="middle" x="218.48" y="-785.3" font-family="Roboto" font-size="14.00" fill="grey">rsync pull unsigned?</text>
</g>
<!-- build_email&#45;&gt;pull_unsigned -->
<g id="edge5" class="edge">
<title>build_email:s&#45;&gt;pull_unsigned:n</title>
<path fill="none" stroke="black" d="M353.48,-865C353.48,-855.82 350.8,-849.39 346.19,-844.94"/>
<polygon fill="black" stroke="black" points="347.81,-841.82 337.48,-839.45 344.07,-847.74 347.81,-841.82"/>
</g>
<!-- pull_unsigned_indexes -->
<g id="node25" class="node">
<title>pull_unsigned_indexes</title>
<ellipse fill="none" stroke="grey" stroke-dasharray="5,2" cx="404.48" cy="-1855" rx="152.17" ry="18"/>
<text text-anchor="middle" x="404.48" y="-1851.3" font-family="Roboto" font-size="14.00" fill="grey">rsync pull repo/ unsigned indexes?</text>
</g>
<!-- postpublish_email&#45;&gt;pull_unsigned_indexes -->
<g id="edge13" class="edge">
<title>postpublish_email:s&#45;&gt;pull_unsigned_indexes:n</title>
<path fill="none" stroke="black" d="M206.48,-1931C206.48,-1917.41 210.84,-1908.61 218.27,-1903.19"/>
<polygon fill="black" stroke="black" points="220.12,-1906.18 227.48,-1898.56 216.97,-1899.92 220.12,-1906.18"/>
</g>
<!-- pull_unsigned&#45;&gt;fdroid publish -->
<g id="edge6" class="edge">
<title>pull_unsigned:s&#45;&gt;fdroid publish:n</title>
<path fill="none" stroke="darkgrey" stroke-dasharray="5,2" d="M218.48,-771C218.48,-759 217.92,-753.75 217.64,-745.13"/>
<polygon fill="darkgrey" stroke="darkgrey" points="221.13,-744.94 217.48,-735 214.13,-745.05 221.13,-744.94"/>
</g>
<!-- push_archive -->
<g id="node24" class="node">
<title>push_archive</title>
<ellipse fill="none" stroke="grey" stroke-dasharray="5,2" cx="216.48" cy="-501" rx="90.98" ry="18"/>
<text text-anchor="middle" x="216.48" y="-497.3" font-family="Roboto" font-size="14.00" fill="grey">rsync push archive?</text>
</g>
<!-- push_repo&#45;&gt;push_archive -->
<g id="edge9" class="edge">
<title>push_repo:s&#45;&gt;push_archive:n</title>
<path fill="none" stroke="darkgrey" stroke-dasharray="5,2" d="M217.48,-555C217.48,-543 216.92,-537.75 216.64,-529.13"/>
<polygon fill="darkgrey" stroke="darkgrey" points="220.13,-528.94 216.48,-519 213.13,-529.05 220.13,-528.94"/>
</g>
<!-- push_archive&#45;&gt;&#45;f update -->
<g id="edge10" class="edge">
<title>push_archive:s&#45;&gt;&#45;f update:n</title>
<path fill="none" stroke="black" d="M208.69,-458C196.32,-441.85 173.02,-435.68 167.62,-413.16"/>
<polygon fill="black" stroke="black" points="171.07,-412.55 166.48,-403 164.11,-413.33 171.07,-412.55"/>
</g>
<!-- pull_unsigned_indexes&#45;&gt;fdroid signindex -->
<g id="edge14" class="edge">
<title>pull_unsigned_indexes:s&#45;&gt;fdroid signindex:n</title>
<path fill="none" stroke="black" d="M404.48,-1837C404.48,-1825 405.04,-1819.75 405.32,-1811.13"/>
<polygon fill="black" stroke="black" points="408.82,-1811.05 405.48,-1801 401.83,-1810.94 408.82,-1811.05"/>
</g>
<!-- push_repo_indexes -->
<g id="node26" class="node">
<title>push_repo_indexes</title>
<ellipse fill="none" stroke="grey" stroke-dasharray="5,2" cx="419.48" cy="-1639" rx="117.78" ry="18"/>
<text text-anchor="middle" x="419.48" y="-1635.3" font-family="Roboto" font-size="14.00" fill="grey">rsync push repo/ indexes?</text>
</g>
<!-- push_archive_indexes -->
<g id="node27" class="node">
<title>push_archive_indexes</title>
<ellipse fill="none" stroke="grey" stroke-dasharray="5,2" cx="425.48" cy="-1567" rx="128.88" ry="18"/>
<text text-anchor="middle" x="425.48" y="-1563.3" font-family="Roboto" font-size="14.00" fill="grey">rsync push archive/ indexes?</text>
</g>
<!-- push_repo_indexes&#45;&gt;push_archive_indexes -->
<g id="edge17" class="edge">
<title>push_repo_indexes:s&#45;&gt;push_archive_indexes:n</title>
<path fill="none" stroke="darkgrey" stroke-dasharray="5,2" d="M419.48,-1621C419.48,-1608.83 422.85,-1603.79 424.54,-1595.19"/>
<polygon fill="darkgrey" stroke="darkgrey" points="428.05,-1595.28 425.48,-1585 421.08,-1594.64 428.05,-1595.28"/>
</g>
<!-- push_archive_indexes&#45;&gt;&#45;f update_server -->
<g id="edge18" class="edge">
<title>push_archive_indexes:s&#45;&gt;&#45;f update_server:n</title>
<path fill="none" stroke="black" d="M433.45,-1524C463.34,-1490.58 567.69,-1530.63 579.41,-1479.27"/>
<polygon fill="black" stroke="black" points="582.92,-1479.31 580.48,-1469 575.96,-1478.58 582.92,-1479.31"/>
</g>
<!-- gpgsign?&#45;&gt;push_repo_indexes -->
<g id="edge16" class="edge">
<title>gpgsign?:s&#45;&gt;push_repo_indexes:n</title>
<path fill="none" stroke="darkgrey" stroke-dasharray="5,2" d="M408.48,-1693C408.48,-1680.32 414.8,-1675.79 417.86,-1667.06"/>
<polygon fill="darkgrey" stroke="darkgrey" points="421.34,-1667.43 419.48,-1657 414.43,-1666.31 421.34,-1667.43"/>
</g>
</g>
</svg>
