<?xml version="1.0" encoding="UTF-8" standalone="no"?>
<!DOCTYPE svg PUBLIC "-//W3C//DTD SVG 1.1//EN"
 "http://www.w3.org/Graphics/SVG/1.1/DTD/svg11.dtd">
<!-- Generated by graphviz version 2.43.0 (0)
 -->
<!-- Title: G Pages: 1 -->
<svg width="891pt" height="1937pt"
 viewBox="0.00 0.00 891.00 1937.00" xmlns="http://www.w3.org/2000/svg" xmlns:xlink="http://www.w3.org/1999/xlink">
<g id="graph0" class="graph" transform="scale(1 1) rotate(0) translate(4 1933)">
<title>G</title>
<polygon fill="white" stroke="transparent" points="-4,4 -4,-1933 887,-1933 887,4 -4,4"/>
<g id="clust5" class="cluster">
<title>cluster_publish</title>
<polygon fill="none" stroke="grey" stroke-dasharray="5,2" points="217,-8 217,-405 455,-405 455,-8 217,-8"/>
<text text-anchor="middle" x="336" y="-389.8" font-family="Times,serif" font-size="14.00">PUBLISH</text>
</g>
<g id="clust6" class="cluster">
<title>cluster_signindex</title>
<polygon fill="none" stroke="grey" stroke-dasharray="5,2" points="172,-1263 172,-1660 526,-1660 526,-1263 172,-1263"/>
<text text-anchor="middle" x="349" y="-1644.8" font-family="Times,serif" font-size="14.00">PUBLISH</text>
</g>
<g id="clust1" class="cluster">
<title>cluster_build_sh</title>
<polygon fill="none" stroke="black" points="218,-460 218,-713 434,-713 434,-460 218,-460"/>
<text text-anchor="middle" x="326" y="-697.8" font-family="Times,serif" font-size="14.00">build.sh</text>
</g>
<g id="clust2" class="cluster">
<title>cluster_postpublish_sh</title>
<polygon fill="none" stroke="black" points="540,-1668 540,-1921 794,-1921 794,-1668 540,-1668"/>
<text text-anchor="middle" x="667" y="-1905.8" font-family="Times,serif" font-size="14.00">postpublish.sh</text>
</g>
<g id="clust3" class="cluster">
<title>cluster_postsignindex_sh</title>
<polygon fill="none" stroke="black" points="86,-910 86,-1255 466,-1255 466,-910 86,-910"/>
<text text-anchor="middle" x="276" y="-1239.8" font-family="Times,serif" font-size="14.00">postsignindex.sh</text>
</g>
<g id="clust4" class="cluster">
<title>cluster_pullfdroidserver_sh</title>
<polygon fill="none" stroke="black" points="8,-721 8,-902 324,-902 324,-721 8,-721"/>
<text text-anchor="middle" x="166" y="-886.8" font-family="Times,serif" font-size="14.00">pullfdroidserver.sh</text>
</g>
<g id="clust7" class="cluster">
<title>cluster_makebs_sh</title>
<polygon fill="none" stroke="black" points="571,-1479 571,-1660 763,-1660 763,-1479 571,-1479"/>
<text text-anchor="middle" x="667" y="-1644.8" font-family="Times,serif" font-size="14.00">makebs.sh</text>
</g>
<g id="clust8" class="cluster">
<title>cluster_origin_webserver</title>
<polygon fill="none" stroke="black" points="504,-910 504,-1091 710,-1091 710,-910 504,-910"/>
<text text-anchor="middle" x="607" y="-1075.8" font-family="Times,serif" font-size="14.00">origin webserver</text>
</g>
<!-- top -->
<!-- &#45;f build -->
<g id="node13" class="node">
<title>&#45;f build</title>
<polygon fill="none" stroke="black" points="322,-665 256.98,-647 322,-629 387.02,-647 322,-665"/>
<text text-anchor="middle" x="322" y="-643.3" font-family="Inconsolata" font-size="14.00">&#45;f build</text>
</g>
<!-- top&#45;&gt;&#45;f build -->
<!-- fdroid build -->
<g id="node2" class="node">
<title>fdroid build</title>
<polygon fill="none" stroke="black" points="385,-521 287,-521 287,-485 385,-485 385,-521"/>
<text text-anchor="middle" x="336" y="-499.3" font-family="Inconsolata" font-size="14.00">fdroid build</text>
</g>
<!-- build_email -->
<g id="node20" class="node">
<title>build_email</title>
<polygon fill="lightgrey" stroke="black" points="556.86,-436.56 336,-449 115.14,-436.56 115.35,-416.44 556.65,-416.44 556.86,-436.56"/>
<text text-anchor="middle" x="336" y="-427.3" font-family="serif" font-size="14.00">Build output is waiting to be published</text>
</g>
<!-- fdroid build&#45;&gt;build_email -->
<g id="edge4" class="edge">
<title>fdroid build:s&#45;&gt;build_email:n</title>
<path fill="none" stroke="black" d="M336,-484C329.04,-471.97 327.46,-466.92 331.27,-458.05"/>
<polygon fill="black" stroke="black" points="334.47,-459.48 336,-449 328.26,-456.24 334.47,-459.48"/>
</g>
<!-- fdroid build&#45;&gt;build_email -->
<!-- fdroid publish -->
<g id="node3" class="node">
<title>fdroid publish</title>
<polygon fill="none" stroke="black" points="391.5,-285 280.5,-285 280.5,-249 391.5,-249 391.5,-285"/>
<text text-anchor="middle" x="336" y="-263.3" font-family="Inconsolata" font-size="14.00">fdroid publish</text>
</g>
<!-- fdroid gpgsign -->
<g id="node4" class="node">
<title>fdroid gpgsign</title>
<polygon fill="none" stroke="black" points="392.5,-213 281.5,-213 281.5,-177 392.5,-177 392.5,-213"/>
<text text-anchor="middle" x="337" y="-191.3" font-family="Inconsolata" font-size="14.00">fdroid gpgsign</text>
</g>
<!-- fdroid publish&#45;&gt;fdroid gpgsign -->
<g id="edge7" class="edge">
<title>fdroid publish:s&#45;&gt;fdroid gpgsign:n</title>
<path fill="none" stroke="darkgrey" stroke-dasharray="5,2" d="M336,-249C336,-237 336.56,-231.75 336.84,-223.13"/>
<polygon fill="darkgrey" stroke="darkgrey" points="340.35,-223.05 337,-213 333.35,-222.94 340.35,-223.05"/>
</g>
<!-- push_repo -->
<g id="node28" class="node">
<title>push_repo</title>
<ellipse fill="none" stroke="grey" stroke-dasharray="5,2" cx="338" cy="-123" rx="79.09" ry="18"/>
<text text-anchor="middle" x="338" y="-119.3" font-family="Roboto" font-size="14.00" fill="grey">rsync push repo?</text>
</g>
<!-- fdroid gpgsign&#45;&gt;push_repo -->
<g id="edge8" class="edge">
<title>fdroid gpgsign:s&#45;&gt;push_repo:n</title>
<path fill="none" stroke="darkgrey" stroke-dasharray="5,2" d="M337,-177C337,-165 337.56,-159.75 337.84,-151.13"/>
<polygon fill="darkgrey" stroke="darkgrey" points="341.35,-151.05 338,-141 334.35,-150.94 341.35,-151.05"/>
</g>
<!-- fdroid update -->
<g id="node5" class="node">
<title>fdroid update</title>
<polygon fill="none" stroke="black" points="719,-1801 615,-1801 615,-1765 719,-1765 719,-1801"/>
<text text-anchor="middle" x="667" y="-1779.3" font-family="Inconsolata" font-size="14.00">fdroid update</text>
</g>
<!-- &#45;f makebs&#45;next -->
<g id="node15" class="node">
<title>&#45;f makebs&#45;next</title>
<polygon fill="none" stroke="black" points="667,-1729 564.95,-1711 667,-1693 769.05,-1711 667,-1729"/>
<text text-anchor="middle" x="667" y="-1707.3" font-family="Inconsolata" font-size="14.00">&#45;f makebs&#45;next</text>
</g>
<!-- fdroid update&#45;&gt;&#45;f makebs&#45;next -->
<g id="edge19" class="edge">
<title>fdroid update:s&#45;&gt;&#45;f makebs&#45;next:n</title>
<path fill="none" stroke="black" d="M667,-1765C667,-1753 667,-1747.75 667,-1739.12"/>
<polygon fill="black" stroke="black" points="670.5,-1739 667,-1729 663.5,-1739 670.5,-1739"/>
</g>
<!-- postpublish_email -->
<g id="node21" class="node">
<title>postpublish_email</title>
<polygon fill="lightgrey" stroke="black" points="515.1,-1716.56 349,-1729 182.9,-1716.56 183.06,-1696.44 514.94,-1696.44 515.1,-1716.56"/>
<text text-anchor="middle" x="349" y="-1707.3" font-family="serif" font-size="14.00">Index is waiting to be signed</text>
</g>
<!-- fdroid update&#45;&gt;postpublish_email -->
<g id="edge12" class="edge">
<title>fdroid update:s&#45;&gt;postpublish_email:w</title>
<path fill="none" stroke="black" d="M667,-1765C667,-1711.07 220.77,-1767.49 183,-1729 180.81,-1726.77 178.95,-1723.53 177.98,-1720.42"/>
<polygon fill="black" stroke="black" points="181.3,-1721.57 182,-1711 174.86,-1718.83 181.3,-1721.57"/>
</g>
<!-- fdroid signindex -->
<g id="node6" class="node">
<title>fdroid signindex</title>
<polygon fill="none" stroke="black" points="405.5,-1540 280.5,-1540 280.5,-1504 405.5,-1504 405.5,-1540"/>
<text text-anchor="middle" x="343" y="-1518.3" font-family="Inconsolata" font-size="14.00">fdroid signindex</text>
</g>
<!-- gpgsign? -->
<g id="node33" class="node">
<title>gpgsign?</title>
<ellipse fill="none" stroke="grey" stroke-dasharray="5,2" cx="326" cy="-1450" rx="46.59" ry="18"/>
<text text-anchor="middle" x="326" y="-1446.3" font-family="Roboto" font-size="14.00" fill="grey">gpgsign?</text>
</g>
<!-- fdroid signindex&#45;&gt;gpgsign? -->
<g id="edge15" class="edge">
<title>fdroid signindex:s&#45;&gt;gpgsign?:n</title>
<path fill="none" stroke="darkgrey" stroke-dasharray="5,2" d="M343,-1503C343,-1489.76 333.03,-1486.41 328.36,-1477.81"/>
<polygon fill="darkgrey" stroke="darkgrey" points="331.74,-1476.9 326,-1468 324.94,-1478.54 331.74,-1476.9"/>
</g>
<!-- fdroid deploy -->
<g id="node7" class="node">
<title>fdroid deploy</title>
<polygon fill="none" stroke="black" points="380,-1135 276,-1135 276,-1099 380,-1099 380,-1135"/>
<text text-anchor="middle" x="328" y="-1113.3" font-family="Inconsolata" font-size="14.00">fdroid deploy</text>
</g>
<!-- git commit stats/known_apks.txt -->
<g id="node11" class="node">
<title>git commit stats/known_apks.txt</title>
<polygon fill="none" stroke="black" points="441,-1043 215,-1043 215,-1007 441,-1007 441,-1043"/>
<text text-anchor="middle" x="328" y="-1021.3" font-family="Inconsolata" font-size="14.00">git commit stats/known_apks.txt</text>
</g>
<!-- fdroid deploy&#45;&gt;git commit stats/known_apks.txt -->
<g id="edge21" class="edge">
<title>fdroid deploy:s&#45;&gt;git commit stats/known_apks.txt:n</title>
<path fill="none" stroke="black" d="M328,-1099C328,-1078.38 328,-1070.8 328,-1054.26"/>
<polygon fill="black" stroke="black" points="331.5,-1054 328,-1044 324.5,-1054 331.5,-1054"/>
</g>
<!-- f&#45;droid.org -->
<g id="node23" class="node">
<title>f&#45;droid.org</title>
<polygon fill="lightyellow" stroke="black" points="685.28,-1043 560.75,-1043 528.72,-1007 653.25,-1007 685.28,-1043"/>
<text text-anchor="middle" x="607" y="-1021.3" font-family="Roboto" font-size="14.00">f&#45;droid.org</text>
</g>
<!-- fdroid deploy&#45;&gt;f&#45;droid.org -->
<g id="edge30" class="edge">
<title>fdroid deploy:s&#45;&gt;f&#45;droid.org:n</title>
<path fill="none" stroke="black" d="M328,-1099C328,-1091.1 462.25,-1092.52 470,-1091 529.59,-1079.33 598.67,-1105.14 606.3,-1054.06"/>
<polygon fill="black" stroke="black" points="609.8,-1054.22 607,-1044 602.82,-1053.73 609.8,-1054.22"/>
</g>
<!-- ./makebuildserver -->
<g id="node8" class="node">
<title>./makebuildserver</title>
<polygon fill="none" stroke="black" points="732.5,-1540 601.5,-1540 601.5,-1504 732.5,-1504 732.5,-1540"/>
<text text-anchor="middle" x="667" y="-1518.3" font-family="Inconsolata" font-size="14.00">./makebuildserver</text>
</g>
<!-- git pull fdroiddata -->
<g id="node9" class="node">
<title>git pull fdroiddata</title>
<polygon fill="none" stroke="black" points="408.5,-593 263.5,-593 263.5,-557 408.5,-557 408.5,-593"/>
<text text-anchor="middle" x="336" y="-571.3" font-family="Inconsolata" font-size="14.00">git pull fdroiddata</text>
</g>
<!-- git pull fdroiddata&#45;&gt;fdroid build -->
<g id="edge3" class="edge">
<title>git pull fdroiddata:s&#45;&gt;fdroid build:n</title>
<path fill="none" stroke="black" d="M336,-557C336,-545 336,-539.75 336,-531.12"/>
<polygon fill="black" stroke="black" points="339.5,-531 336,-521 332.5,-531 339.5,-531"/>
</g>
<!-- git pull fdroidserver -->
<g id="node10" class="node">
<title>git pull fdroidserver</title>
<polygon fill="none" stroke="black" points="272,-782 114,-782 114,-746 272,-746 272,-782"/>
<text text-anchor="middle" x="193" y="-760.3" font-family="Inconsolata" font-size="14.00">git pull fdroidserver</text>
</g>
<!-- git pull fdroidserver&#45;&gt;&#45;f build -->
<g id="edge27" class="edge">
<title>git pull fdroidserver:s&#45;&gt;&#45;f build:n</title>
<path fill="none" stroke="black" d="M193,-745C184.49,-681.45 299.3,-727.53 319.49,-675.97"/>
<polygon fill="black" stroke="black" points="322.95,-676.55 322,-666 316.16,-674.84 322.95,-676.55"/>
</g>
<!-- git pull fdroidserver&#45;&gt;&#45;f build -->
<!-- &#45;f pullfdroidserver&#45;next -->
<g id="node17" class="node">
<title>&#45;f pullfdroidserver&#45;next</title>
<polygon fill="none" stroke="black" points="276,-971 111.44,-953 276,-935 440.56,-953 276,-971"/>
<text text-anchor="middle" x="276" y="-949.3" font-family="Inconsolata" font-size="14.00">&#45;f pullfdroidserver&#45;next</text>
</g>
<!-- git commit stats/known_apks.txt&#45;&gt;&#45;f pullfdroidserver&#45;next -->
<g id="edge23" class="edge">
<title>git commit stats/known_apks.txt:s&#45;&gt;&#45;f pullfdroidserver&#45;next:n</title>
<path fill="none" stroke="black" d="M328,-1007C328,-983.06 290.29,-994.17 279.1,-980.64"/>
<polygon fill="black" stroke="black" points="282.39,-979.45 276,-971 275.73,-981.59 282.39,-979.45"/>
</g>
<!-- postsignindex_email -->
<g id="node22" class="node">
<title>postsignindex_email</title>
<polygon fill="lightgrey" stroke="black" points="791.35,-580.56 642,-593 492.65,-580.56 492.78,-560.44 791.22,-560.44 791.35,-580.56"/>
<text text-anchor="middle" x="642" y="-571.3" font-family="serif" font-size="14.00">Server has been updated.</text>
</g>
<!-- git commit stats/known_apks.txt&#45;&gt;postsignindex_email -->
<g id="edge22" class="edge">
<title>git commit stats/known_apks.txt:s&#45;&gt;postsignindex_email:n</title>
<path fill="none" stroke="black" d="M328,-1007C328,-950.47 413.05,-1013.79 450,-971 489.32,-925.48 469,-897.15 469,-837 469,-837 469,-837 469,-763 469,-702.85 447.4,-673.38 488,-629 532.85,-579.98 630.52,-654.28 641.07,-603.18"/>
<polygon fill="black" stroke="black" points="644.58,-603.28 642,-593 637.61,-602.64 644.58,-603.28"/>
</g>
<!-- mirror&#45;to&#45;mirror.sh -->
<g id="node12" class="node">
<title>mirror&#45;to&#45;mirror.sh</title>
<polygon fill="none" stroke="black" points="679.5,-971 534.5,-971 534.5,-935 679.5,-935 679.5,-971"/>
<text text-anchor="middle" x="607" y="-949.3" font-family="Inconsolata" font-size="14.00">mirror&#45;to&#45;mirror.sh</text>
</g>
<!-- ftp.agdsn.de -->
<g id="node24" class="node">
<title>ftp.agdsn.de</title>
<polygon fill="lightyellow" stroke="black" points="816.56,-854 672.5,-854 635.44,-818 779.5,-818 816.56,-854"/>
<text text-anchor="middle" x="726" y="-832.3" font-family="Roboto" font-size="14.00">ftp.agdsn.de</text>
</g>
<!-- mirror&#45;to&#45;mirror.sh&#45;&gt;ftp.agdsn.de -->
<g id="edge32" class="edge">
<title>mirror&#45;to&#45;mirror.sh:s&#45;&gt;ftp.agdsn.de:n</title>
<path fill="none" stroke="black" d="M607,-934C607,-874.24 712.46,-913.24 724.82,-865.06"/>
<polygon fill="black" stroke="black" points="728.31,-865.34 726,-855 721.36,-864.52 728.31,-865.34"/>
</g>
<!-- ftp.lysator.liu.se -->
<g id="node25" class="node">
<title>ftp.lysator.liu.se</title>
<polygon fill="lightyellow" stroke="black" points="818.58,-782 642.67,-782 597.42,-746 773.33,-746 818.58,-782"/>
<text text-anchor="middle" x="708" y="-760.3" font-family="Roboto" font-size="14.00">ftp.lysator.liu.se</text>
</g>
<!-- mirror&#45;to&#45;mirror.sh&#45;&gt;ftp.lysator.liu.se -->
<g id="edge33" class="edge">
<title>mirror&#45;to&#45;mirror.sh:s&#45;&gt;ftp.lysator.liu.se:n</title>
<path fill="none" stroke="black" d="M607,-934C607,-881.76 593.98,-859.28 626,-818 647.92,-789.74 696.64,-815.33 706.31,-791.95"/>
<polygon fill="black" stroke="black" points="709.78,-792.44 708,-782 702.88,-791.27 709.78,-792.44"/>
</g>
<!-- plug&#45;mirror.rcac.purdue.edu -->
<g id="node26" class="node">
<title>plug&#45;mirror.rcac.purdue.edu</title>
<polygon fill="lightyellow" stroke="black" points="855.31,-665 570.07,-665 496.69,-629 781.93,-629 855.31,-665"/>
<text text-anchor="middle" x="676" y="-643.3" font-family="Roboto" font-size="14.00">plug&#45;mirror.rcac.purdue.edu</text>
</g>
<!-- mirror&#45;to&#45;mirror.sh&#45;&gt;plug&#45;mirror.rcac.purdue.edu -->
<g id="edge34" class="edge">
<title>mirror&#45;to&#45;mirror.sh:s&#45;&gt;plug&#45;mirror.rcac.purdue.edu:n</title>
<path fill="none" stroke="black" d="M607,-934C607,-919.44 602.28,-916.38 600,-902 591.59,-849.06 590.67,-835.53 588,-782 586.65,-754.92 574.86,-744.71 588,-721 608.44,-684.13 665.04,-707.24 674.61,-676.27"/>
<polygon fill="black" stroke="black" points="678.13,-676.38 676,-666 671.19,-675.44 678.13,-676.38"/>
</g>
<!-- &#45;f build&#45;&gt;fdroid build -->
<!-- &#45;f build&#45;&gt;git pull fdroiddata -->
<g id="edge2" class="edge">
<title>&#45;f build:s&#45;&gt;git pull fdroiddata:n</title>
<path fill="none" stroke="black" d="M322,-629C322,-615.86 330.21,-611.8 334.05,-602.92"/>
<polygon fill="black" stroke="black" points="337.51,-603.49 336,-593 330.64,-602.14 337.51,-603.49"/>
</g>
<!-- &#45;f makebs -->
<g id="node14" class="node">
<title>&#45;f makebs</title>
<polygon fill="none" stroke="black" points="667,-1612 596.45,-1594 667,-1576 737.55,-1594 667,-1612"/>
<text text-anchor="middle" x="667" y="-1590.3" font-family="Inconsolata" font-size="14.00">&#45;f makebs</text>
</g>
<!-- &#45;f makebs&#45;&gt;./makebuildserver -->
<g id="edge29" class="edge">
<title>&#45;f makebs:s&#45;&gt;./makebuildserver:n</title>
<path fill="none" stroke="black" d="M667,-1576C667,-1564 667,-1558.75 667,-1550.12"/>
<polygon fill="black" stroke="black" points="670.5,-1550 667,-1540 663.5,-1550 670.5,-1550"/>
</g>
<!-- &#45;f makebs&#45;next&#45;&gt;&#45;f makebs -->
<g id="edge28" class="edge">
<title>&#45;f makebs&#45;next:s&#45;&gt;&#45;f makebs:n</title>
<path fill="none" stroke="black" d="M667,-1692C667,-1660.59 667,-1650.26 667,-1623.29"/>
<polygon fill="black" stroke="black" points="670.5,-1623 667,-1613 663.5,-1623 670.5,-1623"/>
</g>
<!-- &#45;f makebs&#45;next&#45;&gt;postpublish_email -->
<!-- &#45;f pullfdroidserver -->
<g id="node16" class="node">
<title>&#45;f pullfdroidserver</title>
<polygon fill="none" stroke="black" points="166,-854 32.94,-836 166,-818 299.06,-836 166,-854"/>
<text text-anchor="middle" x="166" y="-832.3" font-family="Inconsolata" font-size="14.00">&#45;f pullfdroidserver</text>
</g>
<!-- &#45;f pullfdroidserver&#45;&gt;git pull fdroidserver -->
<g id="edge26" class="edge">
<title>&#45;f pullfdroidserver:s&#45;&gt;git pull fdroidserver:n</title>
<path fill="none" stroke="black" d="M166,-818C158.55,-801.44 175.78,-801.33 187.04,-790.43"/>
<polygon fill="black" stroke="black" points="190.08,-792.19 193,-782 184.37,-788.14 190.08,-792.19"/>
</g>
<!-- &#45;f pullfdroidserver&#45;&gt;git pull fdroidserver -->
<!-- &#45;f pullfdroidserver&#45;next&#45;&gt;&#45;f build -->
<g id="edge25" class="edge">
<title>&#45;f pullfdroidserver&#45;next:w&#45;&gt;&#45;f build:n</title>
<path fill="none" stroke="black" d="M110,-953C101.99,-953 105.61,-940.93 111,-935 176.61,-862.81 245.11,-953.45 328,-902 403.35,-855.23 455.38,-798.35 412,-721 390.95,-683.47 332.71,-708 323.29,-676.01"/>
<polygon fill="black" stroke="black" points="326.75,-675.47 322,-666 319.81,-676.37 326.75,-675.47"/>
<text text-anchor="middle" x="108" y="-956.8" font-family="Roboto" font-size="14.00">!</text>
</g>
<!-- &#45;f pullfdroidserver&#45;next&#45;&gt;&#45;f pullfdroidserver -->
<g id="edge24" class="edge">
<title>&#45;f pullfdroidserver&#45;next:s&#45;&gt;&#45;f pullfdroidserver:n</title>
<path fill="none" stroke="black" d="M276,-934C267.56,-877.57 170.36,-910.41 165.65,-865.15"/>
<polygon fill="black" stroke="black" points="169.16,-865.11 166,-855 162.16,-864.87 169.16,-865.11"/>
</g>
<!-- &#45;f pullfdroidserver&#45;next&#45;&gt;&#45;f pullfdroidserver -->
<!-- &#45;f update -->
<g id="node18" class="node">
<title>&#45;f update</title>
<polygon fill="none" stroke="black" points="682,-1873 611.45,-1855 682,-1837 752.55,-1855 682,-1873"/>
<text text-anchor="middle" x="682" y="-1851.3" font-family="Inconsolata" font-size="14.00">&#45;f update</text>
</g>
<!-- &#45;f update&#45;&gt;fdroid update -->
<g id="edge11" class="edge">
<title>&#45;f update:s&#45;&gt;fdroid update:n</title>
<path fill="none" stroke="black" d="M682,-1837C682,-1823.73 673.21,-1819.84 669.09,-1810.96"/>
<polygon fill="black" stroke="black" points="672.47,-1810.07 667,-1801 665.62,-1811.51 672.47,-1810.07"/>
</g>
<!-- &#45;f update_server -->
<g id="node19" class="node">
<title>&#45;f update_server</title>
<polygon fill="none" stroke="black" points="326,-1207 211.21,-1189 326,-1171 440.79,-1189 326,-1207"/>
<text text-anchor="middle" x="326" y="-1185.3" font-family="Inconsolata" font-size="14.00">&#45;f update_server</text>
</g>
<!-- &#45;f update_server&#45;&gt;fdroid deploy -->
<g id="edge20" class="edge">
<title>&#45;f update_server:s&#45;&gt;fdroid deploy:n</title>
<path fill="none" stroke="black" d="M326,-1171C326,-1158.98 327.12,-1153.75 327.69,-1145.13"/>
<polygon fill="black" stroke="black" points="331.19,-1145.1 328,-1135 324.19,-1144.89 331.19,-1145.1"/>
</g>
<!-- &#45;f update_server&#45;&gt;&#45;f pullfdroidserver&#45;next -->
<!-- pull_unsigned -->
<g id="node27" class="node">
<title>pull_unsigned</title>
<ellipse fill="none" stroke="grey" stroke-dasharray="5,2" cx="336" cy="-339" rx="93.68" ry="18"/>
<text text-anchor="middle" x="336" y="-335.3" font-family="Roboto" font-size="14.00" fill="grey">rsync pull unsigned?</text>
</g>
<!-- build_email&#45;&gt;pull_unsigned -->
<g id="edge5" class="edge">
<title>build_email:s&#45;&gt;pull_unsigned:n</title>
<path fill="none" stroke="black" d="M336,-415C335.96,-414.88 335.92,-414.77 335.88,-414.65"/>
<polygon fill="black" stroke="black" points="339.14,-413.36 332.63,-405 332.5,-415.59 339.14,-413.36"/>
</g>
<!-- build_email&#45;&gt;pull_unsigned -->
<!-- pull_unsigned_indexes -->
<g id="node30" class="node">
<title>pull_unsigned_indexes</title>
<ellipse fill="none" stroke="grey" stroke-dasharray="5,2" cx="349" cy="-1594" rx="152.17" ry="18"/>
<text text-anchor="middle" x="349" y="-1590.3" font-family="Roboto" font-size="14.00" fill="grey">rsync pull repo/ unsigned indexes?</text>
</g>
<!-- postpublish_email&#45;&gt;pull_unsigned_indexes -->
<g id="edge13" class="edge">
<title>postpublish_email:s&#45;&gt;pull_unsigned_indexes:n</title>
<path fill="none" stroke="black" d="M349,-1695C346.56,-1685.13 344.78,-1677.26 343.67,-1670.32"/>
<polygon fill="black" stroke="black" points="347.1,-1669.52 342.46,-1660 340.15,-1670.34 347.1,-1669.52"/>
</g>
<!-- postpublish_email&#45;&gt;pull_unsigned_indexes -->
<!-- f&#45;droid.org&#45;&gt;mirror&#45;to&#45;mirror.sh -->
<g id="edge31" class="edge">
<title>f&#45;droid.org:s&#45;&gt;mirror&#45;to&#45;mirror.sh:n</title>
<path fill="none" stroke="black" d="M607,-1007C607,-995 607,-989.75 607,-981.12"/>
<polygon fill="black" stroke="black" points="610.5,-981 607,-971 603.5,-981 610.5,-981"/>
</g>
<!-- ftp.agdsn.de&#45;&gt;ftp.lysator.liu.se -->
<!-- ftp.lysator.liu.se&#45;&gt;plug&#45;mirror.rcac.purdue.edu -->
<!-- plug&#45;mirror.rcac.purdue.edu&#45;&gt;postsignindex_email -->
<!-- pull_unsigned&#45;&gt;fdroid publish -->
<g id="edge6" class="edge">
<title>pull_unsigned:s&#45;&gt;fdroid publish:n</title>
<path fill="none" stroke="darkgrey" stroke-dasharray="5,2" d="M336,-321C336,-309 336,-303.75 336,-295.12"/>
<polygon fill="darkgrey" stroke="darkgrey" points="339.5,-295 336,-285 332.5,-295 339.5,-295"/>
</g>
<!-- push_archive -->
<g id="node29" class="node">
<title>push_archive</title>
<ellipse fill="none" stroke="grey" stroke-dasharray="5,2" cx="338" cy="-51" rx="90.98" ry="18"/>
<text text-anchor="middle" x="338" y="-47.3" font-family="Roboto" font-size="14.00" fill="grey">rsync push archive?</text>
</g>
<!-- push_repo&#45;&gt;push_archive -->
<g id="edge9" class="edge">
<title>push_repo:s&#45;&gt;push_archive:n</title>
<path fill="none" stroke="darkgrey" stroke-dasharray="5,2" d="M338,-105C338,-93 338,-87.75 338,-79.12"/>
<polygon fill="darkgrey" stroke="darkgrey" points="341.5,-79 338,-69 334.5,-79 341.5,-79"/>
</g>
<!-- push_archive&#45;&gt;&#45;f update -->
<g id="edge10" class="edge">
<title>push_archive:s&#45;&gt;&#45;f update:n</title>
<path fill="none" stroke="black" d="M455,-27.06C615.15,-56.85 883,-149.71 883,-194 883,-1712 883,-1712 883,-1712 883,-1804.03 835.55,-1832.77 752.78,-1873 741.83,-1878.32 705.48,-1885.42 689.57,-1881.08"/>
<polygon fill="black" stroke="black" points="691.69,-1878.28 682,-1874 686.91,-1883.39 691.69,-1878.28"/>
</g>
<!-- pull_unsigned_indexes&#45;&gt;fdroid signindex -->
<g id="edge14" class="edge">
<title>pull_unsigned_indexes:s&#45;&gt;fdroid signindex:n</title>
<path fill="none" stroke="black" d="M349,-1576C349,-1563.83 345.62,-1558.79 343.94,-1550.19"/>
<polygon fill="black" stroke="black" points="347.4,-1549.64 343,-1540 340.43,-1550.28 347.4,-1549.64"/>
</g>
<!-- push_archive_indexes -->
<g id="node32" class="node">
<title>push_archive_indexes</title>
<ellipse fill="none" stroke="grey" stroke-dasharray="5,2" cx="326" cy="-1306" rx="128.88" ry="18"/>
<text text-anchor="middle" x="326" y="-1302.3" font-family="Roboto" font-size="14.00" fill="grey">rsync push archive/ indexes?</text>
</g>
<!-- pull_unsigned_indexes&#45;&gt;push_archive_indexes -->
<!-- push_repo_indexes -->
<g id="node31" class="node">
<title>push_repo_indexes</title>
<ellipse fill="none" stroke="grey" stroke-dasharray="5,2" cx="320" cy="-1378" rx="117.78" ry="18"/>
<text text-anchor="middle" x="320" y="-1374.3" font-family="Roboto" font-size="14.00" fill="grey">rsync push repo/ indexes?</text>
</g>
<!-- push_repo_indexes&#45;&gt;push_archive_indexes -->
<g id="edge17" class="edge">
<title>push_repo_indexes:s&#45;&gt;push_archive_indexes:n</title>
<path fill="none" stroke="darkgrey" stroke-dasharray="5,2" d="M320,-1360C320,-1347.83 323.38,-1342.79 325.06,-1334.19"/>
<polygon fill="darkgrey" stroke="darkgrey" points="328.57,-1334.28 326,-1324 321.6,-1333.64 328.57,-1334.28"/>
</g>
<!-- push_archive_indexes&#45;&gt;&#45;f update_server -->
<g id="edge18" class="edge">
<title>push_archive_indexes:s&#45;&gt;&#45;f update_server:n</title>
<path fill="none" stroke="black" d="M320.63,-1263C318.09,-1247.61 319.06,-1236.87 323.54,-1217.94"/>
<polygon fill="black" stroke="black" points="326.99,-1218.55 326,-1208 320.2,-1216.86 326.99,-1218.55"/>
</g>
<!-- push_archive_indexes&#45;&gt;&#45;f update_server -->
<!-- gpgsign?&#45;&gt;push_repo_indexes -->
<g id="edge16" class="edge">
<title>gpgsign?:s&#45;&gt;push_repo_indexes:n</title>
<path fill="none" stroke="darkgrey" stroke-dasharray="5,2" d="M326,-1432C326,-1419.83 322.62,-1414.79 320.94,-1406.19"/>
<polygon fill="darkgrey" stroke="darkgrey" points="324.4,-1405.64 320,-1396 317.43,-1406.28 324.4,-1405.64"/>
</g>
</g>
</svg>
